<svg xmlns="http://www.w3.org/2000/svg" version="1.1" xmlns:xlink="http://www.w3.org/1999/xlink" xmlns:svgjs="http://svgjs.com/svgjs" width="512" height="512" x="0" y="0" viewBox="0 0 467.971 467.971" style="enable-background:new 0 0 512 512" xml:space="preserve" class=""><g><g xmlns="http://www.w3.org/2000/svg"><path d="m467.388 286.232c0-.032-.001-.006-.23-3.873-.382-6.43-1.246-12.884-2.567-19.184l-34.619-165.116c-5.109-24.409-27.632-40.573-52.417-37.596l-313.788 37.8c-5.679.679-9.294 1.712-15.773 3.314-.001 0-.002.001-.003.001-49.997 12.042-50.547 52.068-46.425 74.856l34.721 192.16c4.162 22.996 24.355 39.239 46.985 39.238 6.066 0-13.752 3.129 328.367-56.744 30.372-5.318 60.953-25.15 55.749-64.856zm-56.438 60.916-320.16 56.03c-23.606 4.128-46.298-11.706-50.567-35.295l-34.721-192.16c-4.729-26.144-1.031-59.556 43.44-70.26 5.681-1.367 9.43-2.527 15.302-3.229l313.789-37.8c22.704-2.727 43.343 12.08 48.024 34.445l34.619 165.117c2.658 12.679 2.468 20.718 2.735 22.674 4.89 36.962-23.894 55.476-52.461 60.478z" fill="#fb7378" data-original="#000000"></path><path d="m427.38 325.388-320.17 56.03c-23.624 4.139-46.296-11.696-50.558-35.296l-32.72-181c-.196-1.086-1.24-1.808-2.323-1.612-1.087.197-1.81 1.237-1.612 2.324l32.72 181c4.628 25.632 29.284 43.061 55.183 38.525l320.17-56.03c1.088-.19 1.815-1.227 1.625-2.315s-1.223-1.812-2.315-1.626z" fill="#fb7378" data-original="#000000"></path><path d="m79.081 296.663c.175 1.098 1.207 1.835 2.29 1.661l330.36-52.583c1.091-.174 1.834-1.199 1.661-2.29-.174-1.09-1.195-1.832-2.29-1.661l-330.36 52.583c-1.091.174-1.834 1.199-1.661 2.29z" fill="#fb7378" data-original="#000000"></path><path d="m284.177 301.239-203.475 36.58c-1.088.195-1.811 1.235-1.615 2.322.195 1.085 1.234 1.811 2.322 1.614l203.475-36.58c1.088-.195 1.811-1.235 1.615-2.322-.195-1.087-1.237-1.814-2.322-1.614z" fill="#fb7378" data-original="#000000"></path><path d="m144.839 226.956-7.494-27.931c-1.964-7.318-9.094-12.036-16.604-10.974l-53.091 7.521c-8.487 1.202-14.282 9.258-12.628 17.737l5.435 27.851c1.39 7.122 7.65 12.138 14.726 12.138 1.445 0-3.249.574 57.165-7.577 8.952-1.207 14.839-10.016 12.491-18.765zm-68.177 22.244c-5.767.775-11.163-3.089-12.279-8.804l-5.435-27.851c-1.207-6.188 3.005-12.125 9.263-13.011l53.091-7.521c5.502-.783 10.739 2.681 12.18 8.049l7.494 27.932c1.717 6.398-2.576 12.877-9.163 13.766z" fill="#fb7378" data-original="#000000"></path><path d="m55.905 156.602c.189 0-7.058.836 186.72-21.733 1.097-.127 1.883-1.121 1.755-2.218-.127-1.098-1.124-1.881-2.218-1.755l-186.486 21.719c-1.097.128-1.883 1.121-1.755 2.218.119 1.019.983 1.769 1.984 1.769z" fill="#fb7378" data-original="#000000"></path></g></g></svg>