<svg xmlns="http://www.w3.org/2000/svg" version="1.1" xmlns:xlink="http://www.w3.org/1999/xlink" xmlns:svgjs="http://svgjs.com/svgjs" width="512" height="512" x="0" y="0" viewBox="0 0 471.123 471.123" style="enable-background:new 0 0 512 512" xml:space="preserve" class=""><g>
<path xmlns="http://www.w3.org/2000/svg" d="M325.175,88.737c19.467-20.985,19.067-50.861-10.032-76.144c-41.295-35.855-72.435,11.049-88.879,62.978  c-3.7-0.387-7.906,0.15-11.536,1.907c-26.307-47.802-64.731-83.942-97.845-40.64c-15.869,20.753-19.797,41.744-11.382,58.901  l-4.542,32.701l-28.327,6.696c-1.124,0.265-1.791,1.427-1.452,2.532c21.173,69.104,18.104,141.207,11.801,189.525  c-6.839,52.423-18.855,88.944-18.976,89.308c-0.295,0.885,0.062,1.855,0.859,2.34c68.348,41.524,82.305,50.03,85.305,51.799  c0.892,0.526,1.358,0.542,2.141,0.417c6.07-0.971,41.451-6.912,242.923-40.713c0.813-0.137,1.459-0.759,1.627-1.565  C437.479,233.3,347.068,114.112,325.175,88.737z M279.229,5.068c10.563-3.016,21.761,0.533,33.291,10.545  c20.24,17.586,26.947,38.529,18.401,57.461c-4.057,8.988-9.94,14.1-10.204,14.548c-15.279,15.208-41.138,22.934-68.978,19.583  c-1.352-5.605-4.122-14.448-9.218-21.383c1.365-3.119,2.747-6.104,4.143-8.958c11.564,6.528,26.831,12.437,37.749,4.967  c15.396-10.533,12.708-41.417,11.595-50.209c14.24,0.408,24.157,11.158,24.267,11.278c0.738,0.819,2.004,0.888,2.824,0.148  c0.821-0.739,0.888-2.004,0.148-2.824c-0.564-0.628-14.069-15.36-33.402-12.188c-18.537,3.04-35.414,21.33-50.192,54.372  c-2.633-2.714-5.758-4.869-9.45-6.026C236.732,55.869,253.394,12.443,279.229,5.068z M301.746,172.946  c2.221,7.88,7.746,21.054,10.86,28.244c-32.005-17.197-58.289-59.791-69.232-79.61c2.994-1.926,5.982-4.311,8.9-7.25  c0.845-0.853,0.563-1.774,0.342-2.997c8.383,0.906,16.706,0.908,25.371-0.228c22.302,27.712,60.279,51.577,66.879,59.301  c-13.258,0-36.778-8.822-42.203-2.904C301.808,168.435,300.954,170.137,301.746,172.946z M248.466,73.276  c9.12-17.716,23.698-39.285,43.522-41.496c0.97,7.681,3.753,37.455-9.833,46.75C274.801,83.565,263.463,81.782,248.466,73.276z   M221.451,79.622c19.714-2.59,26.182,26.812,27.255,32.61c-9.629,9.347-18.679,11.026-19.3,11.354  c-11.928,3.302-22.125,0.361-25.422-0.812C203.443,115.953,201.777,82.196,221.451,79.622z M169.397,177.235  c0.792-2.809-0.062-4.511-0.917-5.443c-3.136-3.421-10.915-2.145-23.345,0.222c-4.537,0.863-13.886,2.683-18.858,2.683  c6.146-7.194,38.399-27.626,60.951-52.382c4.152-1.046,8.326-2.354,12.49-3.926c0.112,3.364,0.355,5.637,0.4,6.03  c0.081,0.712,0.536,1.326,1.194,1.61c0.138,0.06,7.032,2.942,16.781,2.942c2.608,0,5.424-0.216,8.365-0.738  c-11.588,20.57-37.111,60.688-67.921,77.246C161.651,198.289,167.176,185.116,169.397,177.235z M156.613,199.798  c-2.082-8.277-4.394-16.506-6.904-24.572c6.827-1.248,14.323-2.365,15.823-0.73c0.321,0.35,0.147,1.188,0.016,1.655  C163.777,182.43,159.706,192.487,156.613,199.798z M127.001,117.337c15.866,8.515,35.268,9.801,53.311,6.48  c-11.958,12.293-25.887,23.298-37.135,31.964C138.28,142.275,132.859,129.381,127.001,117.337z M120.061,39.269  c9.679-12.659,20.26-18.628,31.407-17.74c26.137,2.074,49.988,40.085,59.86,58.07c-3.154,2.463-5.482,5.843-7.189,9.658  c-20.321-29.051-40.057-43.482-58.646-42.942c-2.024,0.061-4.367,0.383-4.951,0.521c-16.976,3.039-26.136,18.158-26.552,18.859  c-0.563,0.95-0.249,2.177,0.701,2.74c0.95,0.563,2.177,0.25,2.74-0.701c0.087-0.147,7.793-12.883,21.688-16.49  c1.175,19.917,7.856,47.935,27.714,47.935c8.251,0,17.944-4.902,28.93-14.627c2.211,2.907,4.434,6.001,6.668,9.276  c-2.121,6.857-2.713,14.396-2.767,20.284C134.387,139.712,77.264,95.233,120.061,39.269z M193.302,81.381  c-13.303,11.838-24.186,16.104-32.34,12.628c-14.766-6.291-17.427-35.91-17.869-43.502C162.78,48.208,180.962,65.851,193.302,81.381  z M150.714,464.352l-31.67-46.515c2.542-10.265,25.265-108.058,1.215-228.363c-0.216-1.084-1.274-1.79-2.353-1.569  c-1.084,0.216-1.786,1.27-1.569,2.353c23.424,117.176,2.181,212.761-0.998,225.894l-25.687-1.026  c-1.104-0.023-2.034,0.813-2.078,1.918c-0.045,1.104,0.814,2.034,1.918,2.078l26.304,1.051l28.952,42.523l-76.461-46.453  c2.337-7.465,12.542-41.688,18.648-88.437c6.303-48.26,9.401-120.071-11.312-189.265l27.589-6.521  c0.804-0.189,1.407-0.854,1.521-1.671l4.032-29.029c3.25,4.728,7.214,8.661,11.751,11.962c7.084,13.894,13.582,29.044,19.334,45.057  c-12.737,9.914-19.396,14.513-18.081,18.207c0.806,2.261,3.748,2.173,4.722,2.146c5.815-0.173,12.646-1.466,19.262-2.726  c4.235,13.563,6.845,23.858,9.55,35.557C173.447,291.239,171.911,376.258,150.714,464.352z M241.832,452.025l-87.588,14.695  c21.75-89.535,23.354-175.968,4.76-256.978c20.314-10.419,38.354-30.727,51.935-49.661  C232.325,220.531,254.378,319.23,241.832,452.025z M312.384,440.189c-81.289,13.638-63.993,10.77-66.466,11.151  c12.58-134.946-10.405-234.837-32.159-295.26c7.867-11.361,14.023-21.902,17.976-29.11c2.679-0.811,5.421-1.918,8.18-3.381  c8.927,16.155,27.846,47.064,51.917,67.846C319.547,288.793,315.576,396.649,312.384,440.189z M393.22,426.627l-76.777,12.881  c3.134-43.537,6.781-147.895-19.24-243.679c5.955,4.601,12.181,8.525,18.623,11.4c1.666,0.743,3.392-0.966,2.641-2.645  c-0.099-0.219-9.609-22.063-12.871-32.724c-0.464-1.517,0.593-2.093,1.047-2.228c5.436-1.61,26.031,4.413,38.009,4.769  c0.968,0.03,3.916,0.119,4.723-2.145c1.158-3.249-3.077-6.687-17.947-18.107c-14.66-11.26-34.463-26.484-48.852-43.754  c15.83-2.838,29.733-9.385,39.769-18.815C344.251,117.051,432.662,234.304,393.22,426.627z" fill="#fb7378" data-original="#000000" class=""></path>















</g></svg>