<svg xmlns="http://www.w3.org/2000/svg" version="1.1" xmlns:xlink="http://www.w3.org/1999/xlink" xmlns:svgjs="http://svgjs.com/svgjs" width="512" height="512" x="0" y="0" viewBox="0 0 468.048 468.048" style="enable-background:new 0 0 512 512" xml:space="preserve" class=""><g><g xmlns="http://www.w3.org/2000/svg"><path d="m463.053 284.401c-1.426-5.942-6.254-10.234-12.039-11.243-2.791-40.592-16.432-80.706-19.87-90.284 8.606-2.621 13.094-12.211 9.382-20.576-1.952-4.476-6.159-7.943-11.396-8.793-112.898-18.415-106.188-17.431-108.162-17.407v-5.829c0-13.21-9.858-24.657-22.932-26.628l-69.99-10.561c19.863-13.961 24.45-38.995 2.262-62.718-28.924-30.926-56.747 2.32-73.599 40.875-2.675-.495-5.633-.418-8.446.506-16.535-38.934-43.301-69.259-72.21-38.628-23.41 24.805-18.234 50.023 1.782 63.32-6.323 1.116-31.585 5.566-43.205 7.613-12.894 2.271-22.253 13.429-22.253 26.529v20.011c0 10.714 7.661 19.827 18.216 21.67l5.094.889v96.319l-18.046-2.135c-8.995-1.047-16.904 5.962-16.904 15.026v65.083c-5.149 35.519 17.383 65.586 44.378 65.712.781.1 5.501.67 12.558.67 8.873 0 21.424-.903 34.415-4.777 15.807-4.708 23.059-16.508 26.174-24.058l53.866 7.573c1.97 31.527 23.754 56.465 50.299 56.572.818.104 6.107.731 14.047.731 9.95 0 24.042-.99 38.633-5.247 23.329-6.806 30.084-27.233 31.624-33.447 1.692.047-2.955.591 56.009-7.355 8.916 14.231 29.601 14.18 46.666 12.474 33.422-3.342 41.842-19.876 43.602-24.697 6.097-1.366 10.822-6.415 11.69-12.678 2.886-20.77 6.509-60.668-1.645-94.512zm-16.058-11.399c-1.015.09 8.645-1.129-145.434 18.54-6.154-36.945-14.703-78.624-16.718-88.344l142.325-19.56c2.95 8.132 16.938 48.458 19.827 89.364zm-149.542 18.227-22.456-4.56-18.25-87.668 24.019 4.241c1.656 7.961 10.377 50.276 16.687 87.987zm-.013-183.634c11.133 1.679 19.528 11.426 19.528 22.673v6.306l-148.99 24.962c-7.318 1.225-12.63 7.501-12.63 14.923v6.188l-13.62 3.958v-46.813c4.35.296 3.128.24 41.928-6.5.271 3.513.657 10.643-.172 15.693-.575 3.501 1.322 5.323 3.68 5.323 4.569-.001 11.923-6.315 14.7-12.979.54-1.295 1.077-1.817 1.4-1.874 2.299-.368 8.192 7.875 11.841 10.482 2.09 1.49 3.636.901 4.373.417 3.944-2.599 1.893-15.924.393-23.349l51.699-8.985c1.088-.189 1.817-1.225 1.628-2.313s-1.224-1.813-2.313-1.628l-52.648 9.15c-1.918-2.084-7.335-7.631-15.62-13.396-.907-.631-2.153-.407-2.784.499-.631.907-.407 2.153.499 2.784 8.511 5.923 13.969 11.721 15.312 13.208 2.294 10.729 2.491 18.234 1.756 20.336-4.232-3.051-9.415-12.103-14.826-11.145-1.876.328-3.357 1.767-4.402 4.274-2.616 6.277-8.921 10.468-10.794 10.542-.007-.146 0-.372.054-.698 1.22-7.433.065-18.433.015-18.897-.041-.391-.223-.777-.458-1.058-.016-.02-.024-.044-.041-.063-6.878-7.686-16.056-14.524-23.534-19.455 3.493-1.367 7.087-3.396 10.662-6.318.487-.398.759-1.003.732-1.633-.003-.065-.011-.222-.023-.426 16.214 3.372 33.784 2.09 47.957-5.458zm-202.421 50.504c.045 2.203-.292 3.013-.428 3.248-1.628-.173-6.728-5.418-10.316-11.997-1.513-2.774-3.27-4.282-5.369-4.61-4.416-.696-8.671 4.213-13.937 9.12 1.745-5.414 6.41-16.017 10.931-25.247 1.881-1.875 15.878-15.432 34.411-22.932 7.725.145 15.143-.82 22.45-2.69-.142 2.257-.139 3.779-.136 4.06.007.717.396 1.375 1.021 1.726.068.038 2.396 1.304 6.192 2.372-11.686 4.775-25.816 11.458-36.481 19.374-.05.037-.09.083-.136.124-.203.183-.114.093-.252.271-.046.059-.113.147-.159.223-.33.578-8.05 14.303-7.791 26.958zm52.291-45.608c3.67.297 7.309.091 11.122-.789 6.83 4.326 15.837 10.664 23.012 17.913l-33.982 5.903c-2.448.429-4.948.453-7.428.073l-30.25-4.677c11.748-7.796 26.541-14.216 37.526-18.423zm-7.932 78.747c.652.097-.804.449 15.97-4.426v84.296c0 6.673-5.845 11.831-12.435 11.044l-103.225-12.212v-96.095c7.317 1.277 99.574 17.372 99.69 17.393zm63.803-168.722c8.154-1.435 16.299 2.123 24.207 10.578 13.938 14.901 17.379 31.255 9.441 44.867-5.884 10.09-15.531 14.512-15.857 14.81-12.496 6.701-29.328 8.692-46.619 4.818-.61-4.391-2.024-11.103-5.227-16.7 1.157-2.029 2.319-3.981 3.485-5.85 7.993 5.607 14.991 8.424 20.918 8.423 16.87 0 21.018-22.424 20.765-39.231 10.329 1.634 16.747 10.207 16.818 10.303.65.894 1.901 1.091 2.794.44s1.09-1.901.439-2.794c-.389-.534-9.699-13.079-24.983-12.172-14.467.852-28.841 13.377-42.753 37.232-1.663-1.992-3.664-3.657-6.067-4.777 5.726-12.976 22.31-46.366 42.639-49.947zm-28.405 49.15c8.099-12.23 20.827-27.269 35.504-27.686.102 6.528-.378 28.341-11.013 34.095-5.795 3.137-14.031.971-24.491-6.409zm-21.793 3.276c14.644-.363 17.334 21.475 17.758 26.442-12.152 9.447-23.363 7.042-24.078 7.136-4.726-.519-8.329-1.933-10.02-2.713.356-12.351 3.927-30.538 16.34-30.865zm-74.02-39.081c8.299-8.794 16.721-12.475 25.021-10.939 19.45 3.596 34.487 33.941 40.672 48.555-2.306 1.528-4.167 3.65-5.674 6.091-9.753-17.397-25.296-38.424-45.166-37.075-.068.002-.136.003-.202.013-13.414 1.013-21.723 11.981-22.102 12.49-.658.887-.473 2.14.414 2.798.886.658 2.139.473 2.798-.413.075-.102 6.639-8.75 17.047-10.601-.281 7.587-.058 30.251 12.066 36.98 9.035 5.014 20.547-.944 28.955-6.886 1.335 2.212 2.666 4.544 3.992 6.995-2.078 4.954-3.117 10.461-3.638 14.875-30.021 8.217-48.815-3.183-49.116-3.248-21.445-11.226-27.941-35.4-5.067-59.635zm51.71 37.607c-10.787 7.679-19.161 9.979-24.892 6.797-10.322-5.725-10.242-27.442-9.984-33.831 14.753.074 26.933 14.659 34.876 27.034zm-99.391 94.849c-8.636-1.507-14.904-8.963-14.904-17.729v-20.011c0-11.155 7.968-20.656 18.947-22.59 17.274-3.044 30.642-5.396 47.927-8.446 5.585 2.753 11.921 4.617 18.738 5.522-14.829 7.431-25.584 17.445-28.438 20.243l-27.958-4.324c-1.092-.169-2.113.578-2.282 1.671-.169 1.092.579 2.113 1.671 2.282l26.278 4.065c-13.482 27.807-11.193 29.557-9.944 30.504 1.825 1.386 3.862-.435 4.531-1.032 5.196-4.626 10.025-10.136 12.439-9.779.967.151 1.88 1.483 2.475 2.574 2.545 4.66 9.782 15.325 14.937 13.957 2.288-.608 3.404-3.033 3.319-7.206-.195-9.532 4.829-20.191 6.63-23.695l32.081 4.96v47.607zm59.664 236.895c-22.955 6.849-45.17 3.994-45.393 3.964-.043-.006-.085-.001-.127-.004-.047-.003-.091-.014-.138-.014-22.756 0-41.27-23.264-41.27-51.859 0-29.09 19.91-54.646 45.157-51.624.065.009.241.023.373.023 9.159 0 20.165 3.966 28.44 11.755 11.68 10.994 17.867 28.547 18.391 52.17.158 7.024 5.747 13.093 13.001 14.116l4.775.671c-3.022 6.839-9.602 16.749-23.209 20.802zm183.042 35.566c-25.859 7.545-50.88 4.409-51.13 4.377-.043-.006-.085-.001-.128-.004-.044-.002-.086-.013-.131-.013-25.712 0-46.63-25.674-46.63-57.23 0-36.422 27.896-64.605 57.813-55.57.005.002.01.001.015.002.093.029.121.04.237.063v.001c.111.021 11.243 2.228 22.624 11.334 14.829 11.865 23.259 29.387 25.057 52.081.568 7.055 5.871 12.696 12.896 13.72l8.12 1.181c-1.548 5.988-7.852 23.964-28.743 30.058zm135.021-28.47c-27.4 2.739-37.239-2.893-41.864-9.087l81.167-10.938c-2.905 5.536-12.186 17.314-39.303 20.025zm51.728-33.944c-.683 4.922-4.604 8.825-9.536 9.492l-142.675 19.229c-2.08.273-2.408.083-13.34-1.507-5.167-.752-9.067-4.898-9.484-10.079-2.352-29.69-15.734-46.235-26.545-54.886-11.704-9.364-23.019-11.865-24.273-12.12-32.268-9.706-62.915 20.053-62.915 59.414 0 .199.011.395.012.593l-62.043-8.723c-5.336-.752-9.446-5.157-9.56-10.244-.548-24.735-7.159-43.237-19.648-54.994-13.805-12.994-29.731-12.895-31.195-12.848-20.084-2.354-37.099 11.722-44.797 30.811v-50.145c0-6.639 5.796-11.833 12.435-11.054l125.271 14.82c9.014 1.054 16.904-5.978 16.904-15.017v-94.649c0-5.46 3.907-10.076 9.291-10.978 160.477-26.886 151.55-25.695 154.278-25.249l105.571 17.22c3.719.604 6.849 3.019 8.372 6.457 2.997 6.643-1.201 14.527-8.644 15.548l-145.729 20.027-27.951-4.936c-1.386-.249-2.594.992-2.306 2.377l19.12 91.85c.163.783.776 1.394 1.56 1.553l25.345 5.146c1.388 5.912 7.394 33.064 9.169 67.296.056 1.068.939 1.896 1.996 1.896 1.146 0 2.058-.958 1.999-2.104-1.71-32.976-7.323-59.512-9.059-67.091l144.61-18.459c5.637-.716 10.882 2.86 12.193 8.324 8.299 34.446 3.866 76.533 1.574 93.03z" fill="#ffffff" data-original="#000000"></path><path d="m277.46 179.813c.214 0-5.281.725 108.366-14.484 1.095-.146 1.864-1.153 1.717-2.248s-1.15-1.86-2.248-1.717l-107.865 14.436-85.05-8.826c-1.104-.121-2.083.684-2.196 1.783-.114 1.099.684 2.081 1.783 2.195 88.472 9.181 85.337 8.861 85.493 8.861z" fill="#ffffff" data-original="#000000"></path><path d="m269.906 373.996c-1.089.184-1.824 1.216-1.64 2.305 2.934 17.43-.838 36.14-11.149 50.068-.657.889-.47 2.141.417 2.798.888.657 2.14.47 2.797-.417 10.948-14.789 14.996-34.603 11.878-53.113-.182-1.089-1.217-1.82-2.303-1.641z" fill="#ffffff" data-original="#000000"></path><path d="m258.002 379.174c-2.56-15.29-11.743-27.927-24.438-32.781-.002-.001-.003-.001-.005-.002 0 0 0 0-.001 0-12.84-4.95-27.695-.878-37.531 11.993-.671.878-.503 2.133.375 2.804.878.673 2.133.503 2.803-.374 7.603-9.949 18.069-13.819 28.012-12.051-12.291 7.204-20.243 22.231-20.243 39.146s7.952 31.941 20.242 39.146c-12.652 2.251-24.241-4.892-30.805-16.243-.553-.957-1.777-1.286-2.733-.73-.956.553-1.283 1.776-.73 2.732 9.416 16.282 26.172 22.176 40.61 16.614 18.377-7.03 27.966-29.218 24.444-50.254zm-25.168 46.227c-13.107-5.429-21.86-20.378-21.86-37.493s8.754-32.064 21.86-37.492c5.056 2.013 10.409 6.143 14.456 12.127 14.233 20.981 7.258 53.898-14.456 62.858z" fill="#ffffff" data-original="#000000"></path><path d="m81.979 328.654c-1.002.464-1.439 1.652-.976 2.654 7.407 16.023 7.461 36.103-.165 52.329-.47 1-.04 2.19.959 2.661.99.464 2.187.049 2.661-.96 8.151-17.343 8.055-38.663.175-55.708-.463-1.003-1.651-1.44-2.654-.976z" fill="#ffffff" data-original="#000000"></path><path d="m55.137 319.378c-11.837-4.665-25.973-.716-34.912 12.721-.612.919-.362 2.161.557 2.772.92.61 2.161.361 2.773-.558 5.808-8.729 15.016-14.135 25.288-12.512-23.532 14.625-23.566 56.348.001 70.994-11.458 1.81-21.446-5.124-26.978-15.319-.526-.972-1.739-1.329-2.712-.804-.971.526-1.331 1.741-.804 2.712 8.529 15.715 23.928 20.908 36.78 15.836 16.493-6.446 25.016-26.751 21.874-45.897-2.289-13.962-10.507-25.505-21.867-29.945zm11.745 61.177c-3.103 4.587-7.271 8.386-12.508 10.628-11.523-4.946-19.21-18.438-19.21-33.885 0-15.448 7.687-28.939 19.211-33.886 19.391 8.264 25.245 38.308 12.507 57.143z" fill="#ffffff" data-original="#000000"></path></g></g></svg>