<svg xmlns="http://www.w3.org/2000/svg" version="1.1" xmlns:xlink="http://www.w3.org/1999/xlink" xmlns:svgjs="http://svgjs.com/svgjs" width="512" height="512" x="0" y="0" viewBox="0 0 467.971 467.971" style="enable-background:new 0 0 512 512" xml:space="preserve" class=""><g><g xmlns="http://www.w3.org/2000/svg"><path d="m448.166 122.934c-26.743-39.219-63.784-42.686-90.145-38.688-25.463 3.861-45.566 14.959-50.058 17.588-24.209-10.509-50.745-14.053-70.146 4.102-13.673-1.495-27.527-2.795-41.216-3.864-2.854-2.916-6.246-5.6-10.11-7.998.151-.758.274-1.523.341-2.303 1.315-15.206-13.29-32.103-40.07-46.358-20.521-10.923-33.541-13.283-39.801-7.222-8.814 8.536.514 30.575 3.773 37.501-5.027 5.218-10.24 11.757-12.56 18.264-2.851 1.29-5.422 2.7-7.659 4.204-50.83.238-90.271 3.723-88.745 3.584-.813.074-1.557.64-1.765 1.543-.208.905 4.486 131 14.186 212.653.072.606.418 1.147.938 1.468 1.354.832 135.157 82.794 223.99 114.5.867.309 4.237 1.072 6.092 1.104 1.034.018 2.325.032 3.851.032 45.979 0 99.783-10.033 138.423-34.633 22.461-14.299 38.868-32.756 48.766-54.859.588-1.307 4.183-66.162-.294-134.877 12.374-2.466 22.003-8.382 27.278-17.181 6.765-11.28 9.639-32.331-15.069-68.56zm-213.874-13.35c-8.129 9.283-11.642 19.851-12.831 24.241-5.091-1.268-9.833-2.112-14.247-2.566.813-9.261-1.509-17.603-6.918-24.872 11.311.918 22.701 1.989 33.996 3.197zm-137.278-10.619c-.928 9.556 6.47 14.754 15.69 17.376 1.074.305 2.172-.324 2.471-1.377.302-1.063-.314-2.169-1.377-2.471-9.147-2.601-14.956-7.252-12.153-16.338.007-.018.011-.036.017-.054 2.683-8.609 12.876-19.292 19.419-24.616.856-.697.986-1.957.289-2.813-.697-.857-1.957-.987-2.813-.29-.101.082-2.072 1.69-4.802 4.302-4.399-9.765-9.7-26.11-4.011-31.619 3.291-3.188 12.058-4.408 35.139 7.879 25.297 13.466 39.135 28.95 37.964 42.482-.772 8.932-8.099 16.112-20.63 20.218-1.05.344-1.622 1.474-1.278 2.523.344 1.05 1.476 1.622 2.523 1.277 11.046-3.618 18.668-9.791 21.818-17.404 12.162 7.857 19.189 18.712 17.945 32.905-18.383-.891-31.94 6.082-35.849 23.987-15.658 2.752-38.28 4.251-59.666-3.373-10.732-4.162-23.944-12.391-25.939-27.958-1.486-11.671 4.929-19.264 15.243-24.636zm-11.556 3.239c-6.171 5.965-8.748 13.309-7.653 21.905 1.777 13.868 11.619 24.649 28.512 31.199 19.163 6.833 40.539 7.108 60.348 3.812-1.631 13.341 2.276 26.48 2.518 27.275.143.517 1.228 4.262 4.069 10.244-90.686-36.694-150.315-79.455-165.949-91.288 25.73-1.863 51.964-2.918 78.155-3.147zm-71.393 173.114c-4.042-45.489-6.778-95.171-8.411-130.378 30.363 25.256 80.929 66.959 174.857 93.722 1.653 9.643 12.335 74.271 13.578 140.637-17.955-6.701-120.398-46.532-180.024-103.981zm418.392 66.925c-21.782 48.229-72.053 69.236-110.434 78.365-39.993 9.514-75.739 8.475-79.276 8.341-84.793-29.685-213.171-107.419-224.697-114.444-1.193-10.13-2.349-21.263-3.443-33.171 66.361 61.666 179.702 102.322 180.862 102.733 1.307.464 2.688-.518 2.668-1.914-1.057-72.94-13.773-144.708-13.902-145.424-.135-.754-.688-1.364-1.425-1.572-94.555-26.706-145.062-68.722-175.239-93.826l-2.164-1.799c-.665-14.641-1.097-25.851-1.308-31.592 14.78 11.261 76.867 56.262 171.908 94.113 9.097 16.787 29.173 44.476 70.907 70.33 2.945 35.548 2.793 72.422-.464 109.621-.102 1.164.813 2.175 1.995 2.175 1.025 0 1.899-.784 1.99-1.825 3.231-36.906 3.421-73.496.583-108.81 35.742 4.808 64.971-7.352 83.556-37.772 22.623 7.25 41.564 7.171 56.317-.239 14.857-7.463 21.156-20.321 23.287-25.93 6.325.579 12.304.474 17.816-.268 4.463 68.941.798 127.82.463 132.908zm27.35-152.805c-7.435 12.402-24.922 18.393-46.77 16.03h-.001c-8.921-.972-17.985-3.253-26.942-6.779-1.026-.406-2.189.101-2.593 1.129-.405 1.027.101 2.188 1.128 2.594 8.442 3.323 16.985 5.568 25.435 6.711-2.245 5.5-8.089 16.365-20.968 22.834-24.33 12.222-56.924.66-81.17-11.758-.983-.503-2.188-.114-2.692.868-.503.983-.115 2.188.869 2.692 8.532 4.37 16.779 7.953 24.564 10.69-22.174 35.528-56.197 38.653-81.129 34.857-63.374-39.065-76.375-83.535-76.514-84.028-.087-.286-8.559-28.738 4.865-42.667 17.86-18.529 62.739.486 85.897 11.698.98.477 2.185.076 2.672-.928.481-.994.065-2.19-.929-2.672-15-7.264-28.494-12.57-40.193-15.842 1.602-5.774 7.866-24.048 24.82-32.822 24.023-12.43 55.126.966 78.224 15.021.948.578 2.177.27 2.749-.668.574-.943.275-2.174-.668-2.748-6.185-3.765-12.209-7.031-17.969-9.757 7.108-3.838 24.871-12.471 46.131-15.694 36.692-5.571 65.71 6.879 86.24 36.987 23.515 34.483 21.105 53.973 14.944 64.252z" fill="#ffffff" data-original="#000000"></path><path d="m207.775 161.497c-1.096.137-1.873 1.137-1.736 2.232.137 1.096 1.137 1.875 2.233 1.736.353-.044 35.659-4.19 56.714 16.952 13.236 13.291 18.172 33.749 14.671 60.807-.154 1.191.771 2.257 1.986 2.257.99 0 1.851-.735 1.981-1.743 3.669-28.349-1.648-49.93-15.803-64.144-22.426-22.517-58.519-18.29-60.046-18.097z" fill="#ffffff" data-original="#000000"></path><path d="m97.829 262.908c-.69-11.898-4.458-21-11.339-27.154-19.412-17.358-55.771-4.805-57.308-4.262-1.042.367-1.588 1.51-1.22 2.552.367 1.041 1.509 1.591 2.551 1.22.354-.126 35.644-12.324 53.311 3.472 10.522 9.409 12.885 27.008 7.023 52.307-.29 1.25.658 2.451 1.95 2.451.91 0 1.732-.624 1.946-1.549 2.144-9.251 3.192-17.537 3.2-24.883 5.455-1.686 26.922-7.38 38.457 3.292 8.927 8.259 10.136 24.525 3.593 48.35-.349 1.272.61 2.53 1.93 2.53.878-.001 1.684-.584 1.928-1.472 6.969-25.379 5.376-42.99-4.734-52.344-12.538-11.602-33.946-6.675-41.288-4.51z" fill="#ffffff" data-original="#000000"></path></g></g></svg>