<svg xmlns="http://www.w3.org/2000/svg" version="1.1" xmlns:xlink="http://www.w3.org/1999/xlink" xmlns:svgjs="http://svgjs.com/svgjs" width="512" height="512" x="0" y="0" viewBox="0 0 468.018 468.018" style="enable-background:new 0 0 512 512" xml:space="preserve" class=""><g><g xmlns="http://www.w3.org/2000/svg"><path d="m391.109 271.116c-.018-.101-18.532-106.564-18.513-106.463-5.111-27.261-34.04-38.872-60.815-46.025-2.332-27.818-21.638-51.232-48.78-59.305 11.028-16.606 28.333-27.435 51.625-32.208 8.223-1.684 10.044-12.804 2.73-16.952-10.293-5.84-26.56-12.228-45.606-9.523-.381.052-.817.306-.717.248-.573.33-14.18 8.284-26.01 24.684-5.68 7.873-11.451 18.537-14.534 31.907-29.595 5.19-52.53 28.743-56.467 57.958-45.031 9.255-70.04 25.798-74.315 49.189-.52 2.845-9.177 46.236-20.981 105.714-100.241 42.854-106.166 118.75-9.625 164.944 91.204 43.641 238.601 43.651 329.824 0 96.418-46.135 90.169-121.406-7.816-164.168zm-213.309-153.788c3.11-27.611 24.239-50.115 51.823-55.632-2.052 11.445-2.098 24.709 1.429 39.768.254 1.086 1.34 1.742 2.403 1.491 1.076-.252 1.743-1.328 1.491-2.403-6.522-27.849-1.443-52.103 13.223-72.509 7.264-10.108 15.381-16.961 20.305-20.599-.211 1.904-.079 4.096.861 6.3 1.917 4.497 6.549 7.661 13.766 9.404 1.061.256 2.152-.39 2.414-1.475.26-1.074-.4-2.154-1.474-2.414-5.904-1.426-9.61-3.8-11.014-7.057-1.309-3.037-.299-6.239.329-7.728 17.477-2.17 32.463 3.744 42.025 9.166 4.095 2.324 3.059 8.608-1.559 9.556-26.577 5.446-48.166 19.538-59.552 43.401-8.147 17.077-7.864 32.232-7.848 32.869.027 1.104.951 2.016 2.048 1.947 1.104-.026 1.977-.943 1.951-2.047-.003-.147-.257-14.97 7.532-31.2.879-1.832 1.843-3.585 2.845-5.305 45.637 12.766 62.151 67.383 31.94 102.587-55.961 18.596-97.49.039-101.81-2.022-10.711-13.615-14.98-30.229-13.128-46.098zm-74.173 48.069c.001-.005.003-.01.004-.016 3.84-21.135 28.013-36.931 69.945-45.769-1.208 16.756 3.755 33.185 14.503 46.658.175.22.395.4.644.529.305.157 21.486 10.84 54.478 10.839 14.962 0 32.355-2.197 51.329-8.57.336-.112.637-.313.87-.58 11.501-13.177 17.01-29.669 16.62-45.655 35.502 9.676 52.503 22.489 56.651 42.581l11.928 68.607c-.541 6.781-2.842 22.418-12.57 26.968-6.658 3.112-15.882.519-27.415-7.712-12.016-8.572-20.755-11.079-26.712-7.669-14.136 8.093-7.292 46.751-4.664 84.994 3.255 47.255-44.533 62.221-32.163-10.886 5.426-32.064 3.314-49.86-6.456-54.402-13.228-6.155-33.843 15.836-42.092 25.573-10.077 11.895-17.617 16.792-24.433 15.881-9.688-1.296-19.57-14.523-34.109-45.658-6.75-14.451-12.461-20.396-17.987-18.683-5.849 1.807-9.401 12.619-10.557 32.135-.995 16.801.118 37.257 2.978 54.72 7.156 43.655-83.757 34.828-36.188-57.352 3.808-7.393 5.932-15.433 6.142-23.253.422-16.438-6.058-27.43-22.242-25.345 9.578-48.26 11.516-58.039 11.496-57.935zm-12.323 62.1c3.899-.674 7.223-.55 9.886.385.04.014.08.027.121.038.042.012.282.105.323.12 7.583 2.974 8.939 12.809 8.741 20.533-.194 7.221-2.165 14.665-5.698 21.525-25.306 49.038-10.762 71.666-3.334 79.117 18.681 18.745 51.791 8.493 47.025-20.579-6.496-39.662-2.795-80.036 4.813-82.386 1.118-.343 5.37-.173 13.182 16.554 15.396 32.97 25.826 46.408 37.202 47.93 8.323 1.111 16.961-4.209 28.016-17.26 15.708-18.542 30.02-27.943 37.354-24.532 4.389 2.041 10.771 11.265 4.198 50.107-13.404 79.228 43.771 64.601 40.098 11.279-2.271-33.071-8.856-74.655 2.661-81.249 4.398-2.518 11.937-.011 22.402 7.454 12.793 9.131 23.37 11.851 31.432 8.079 7.233-3.383 10.986-11.382 12.935-18.747l14.564 83.77c1.798 10.369-2.123 20.86-10.231 27.379-17.687 14.195-60.804 38.01-150.848 38.01-90.209 0-135.29-24.245-154.133-38.697-8.582-6.583-12.752-17.755-10.625-28.463 19.364-97.584-11.088 55.856 19.916-100.367zm142.709 236.497c-126.822 0-230-48.901-230-109.01 0-30.229 26.833-59.209 73.764-79.875l-10.315 51.976c-2.421 12.189 2.333 24.914 12.114 32.416 19.246 14.761 65.177 39.523 156.567 39.523 91.269 0 135.255-24.366 153.353-38.892 9.244-7.431 13.715-19.379 11.667-31.182l-9.231-53.094c45.86 20.596 72.081 49.306 72.081 79.127 0 60.109-103.177 109.011-230 109.011z" fill="#ffffff" data-original="#000000" class=""></path><path d="m408.911 384.719c-92.909 51.626-261.534 51.213-352.917-1.772-.956-.553-2.18-.228-2.733.728-.554.955-.229 2.179.727 2.733 92.706 53.752 262.82 54.066 356.866 1.808.966-.536 1.313-1.754.777-2.72-.537-.965-1.754-1.314-2.72-.777z" fill="#ffffff" data-original="#000000" class=""></path><path d="m133.612 201.926c54.128 24.921 150.872 24.972 205.108-.017 1.003-.462 1.442-1.65.979-2.653-.461-1.003-1.649-1.442-2.653-.979-53.151 24.489-148.647 24.468-201.761.017-1.004-.465-2.191-.023-2.653.98-.462 1.002-.023 2.19.98 2.652z" fill="#ffffff" data-original="#000000" class=""></path><path d="m199.844 109.788c25.122 18.91 60.089 18.648 84.948-.495.875-.675 1.038-1.931.364-2.806-.674-.874-1.93-1.037-2.805-.364-23.468 18.074-56.482 18.25-80.102.47-.882-.664-2.136-.486-2.801.395-.663.882-.486 2.136.396 2.8z" fill="#ffffff" data-original="#000000" class=""></path></g></g></svg>